# xmcd
#
# Track frame offsets: 
#        150
#        24455
#        41143
#        67509
#        82636
#        103657
#        116669
#        131678
#        143958
#        163513
#        177660
#
# Disc length: 2687 seconds
#
# Revision: 1
# Processed by: cddbd v1.5.2PL0 Copyright (c) Steve Scherf et al.
# Submitted via: ExactAudioCopy v0.99pb5
#
DISCID=8c0a7d0b
DTITLE=Ultimatum - Into The Pit
DYEAR=2007
DGENRE=Thrash Metal
TTITLE0=One For All
TTITLE1=Exonerate
TTITLE2=Deathwish
TTITLE3=Blood Covenant
TTITLE4=Heart Of Metal
TTITLE5=Wrathchild
TTITLE6=Transgressor
TTITLE7=Blink
TTITLE8=Blind Faith
TTITLE9=Into The Pit
TTITLE10=Game Over
EXTD=
EXTT0=
EXTT1=
EXTT2=
EXTT3=
EXTT4=
EXTT5=
EXTT6=
EXTT7=
EXTT8=
EXTT9=
EXTT10=
PLAYORDER=
